<?xml version="1.0"?>
<svg xmlns="http://www.w3.org/2000/svg" xmlns:xlink="http://www.w3.org/1999/xlink" xmlns:svgjs="http://svgjs.com/svgjs" version="1.1" width="512" height="512" x="0" y="0" viewBox="0 0 512 512" style="enable-background:new 0 0 512 512" xml:space="preserve"><g><g xmlns="http://www.w3.org/2000/svg"><path d="m505.818 339.11c-7.342-11.628-19.937-18.571-33.69-18.571h-20.58c-1.892-24.705-8.229-48.485-18.888-70.836 4.354-8.898 7.952-18.39 10.362-27.733 2.405-9.324 1.532-19.058-2.159-27.618l21.84-21.841c12.517 6.917 28.547 4.985 39.048-5.516 18.946-18.945 8.331-51.73-18.404-55.639-3.857-26.375-36.501-37.542-55.639-18.405-10.5 10.501-12.432 26.531-5.515 39.049l-21.841 21.84c-8.56-3.69-18.293-4.563-27.617-2.159-8.047 2.075-16.203 5.035-23.998 8.594-29.801-16.605-63.537-25.388-97.854-25.388-39.172 0-77.145 11.264-109.813 32.573-31.109 20.293-55.895 48.629-71.855 82.034-26.463 14.688-43.979 42.556-44.472 74.011-7.538 3.082-14.045 8.452-18.562 15.605-7.342 11.629-8.195 25.984-2.282 38.401 14.795 31.068 46.588 51.143 80.999 51.143h342.205c34.411 0 66.204-20.075 80.999-51.143 5.912-12.416 5.059-26.772-2.284-38.401zm-68.582-200.938c2.802-2.802 2.94-7.3.316-10.27-6.203-7.02-5.868-17.713.763-24.343 11.81-11.809 31.923-2.216 30.289 14.341-.466 4.713 3.506 8.665 8.199 8.201 16.741-1.65 26.002 18.628 14.342 30.288-6.628 6.63-17.321 6.968-24.343.764-2.969-2.624-7.468-2.485-10.27.317l-24.174 24.174c-.099-.101-.189-.209-.289-.309l-18.699-18.698c-.1-.1-.208-.19-.309-.289zm-85.395 37.181c7.878-3.822 16.309-6.998 24.641-9.146 9.389-2.423 19.475.229 26.281 7.036l18.698 18.698c6.774 6.774 9.47 16.845 7.035 26.282-14.825 57.479-66.662 94.727-106.706 54.69-16.497-16.497-19.556-41.592-9.54-62.349 8.326-17.25 23.321-26.793 39.591-35.211zm-202.575 4.671c30.225-19.715 65.363-30.136 101.618-30.136 28.44 0 56.455 6.497 81.798 18.886-6.637 4.077-14.029 9.499-19.549 15.043-27.743 27.742-29.158 72.494-1.949 99.703 27.373 27.373 72.161 25.587 99.704-1.949.869-.965 6.153-5.967 12.568-15.65 7.123 17.437 11.5 35.73 13.061 54.617h-201.638l17.914-29.39c7.395-12.132 6.357-27.704-2.583-38.748-10.031-12.393-27.581-16.053-41.729-8.707l-37.489 19.465c-21.903-21.317-52.609-28.752-80.33-22.063 14.542-24.483 34.537-45.371 58.604-61.071zm-69.314 80.775c.05-.024.101-.051.151-.075 28.926-13.93 63.016-6.488 83.783 16.682 2.284 2.549 6.004 3.227 9.042 1.65l42.466-22.049c16.806-8.729 34.365 10.299 24.591 26.335l-22.672 37.197h-177.441c-.005 0-.009 0-.014 0 1.577-26.086 17.33-48.705 40.094-59.74zm414.606 110.264c-12.321 25.873-38.799 42.591-67.455 42.591h-342.205c-28.657 0-55.134-16.718-67.455-42.591-3.687-7.742-3.156-16.692 1.423-23.943 4.578-7.251 12.431-11.58 21.006-11.58h432.257c8.576 0 16.427 4.329 21.006 11.579 4.577 7.25 5.11 16.201 1.423 23.944z" fill="#FFB902" data-original="#000000" style=""/></g></g></svg>
